<svg xmlns="http://www.w3.org/2000/svg" width="180" height="180" viewBox="0 0 180 180">
  <rect width="180" height="180" rx="40" fill="#0e0e10"/>
  <g transform="translate(90, 90)">
    <rect x="-60" y="-12" width="4" height="24" rx="2" fill="#e8c97a"/>
    <rect x="-52" y="-20" width="4" height="40" rx="2" fill="#e8c97a"/>
    <rect x="-44" y="-30" width="4" height="60" rx="2" fill="#e8c97a"/>
    <rect x="-36" y="-18" width="4" height="36" rx="2" fill="#e8c97a"/>
    <rect x="-28" y="-40" width="4" height="80" rx="2" fill="#e8c97a"/>
    <rect x="-20" y="-25" width="4" height="50" rx="2" fill="#e8c97a"/>
    <rect x="-12" y="-35" width="4" height="70" rx="2" fill="#e8c97a"/>
    <rect x="-4" y="-50" width="4" height="100" rx="2" fill="#e8c97a"/>
    <rect x="4" y="-45" width="4" height="90" rx="2" fill="#e8c97a"/>
    <rect x="12" y="-32" width="4" height="64" rx="2" fill="#e8c97a"/>
    <rect x="20" y="-42" width="4" height="84" rx="2" fill="#e8c97a"/>
    <rect x="28" y="-22" width="4" height="44" rx="2" fill="#e8c97a"/>
    <rect x="36" y="-35" width="4" height="70" rx="2" fill="#e8c97a"/>
    <rect x="44" y="-18" width="4" height="36" rx="2" fill="#e8c97a"/>
    <rect x="52" y="-25" width="4" height="50" rx="2" fill="#e8c97a"/>
    <rect x="60" y="-10" width="4" height="20" rx="2" fill="#e8c97a"/>
  </g>
</svg>